<mxfile host="app.diagrams.net" modified="2024-06-06T03:07:13.419Z" agent="Mozilla/5.0 (Windows NT 10.0; Win64; x64) AppleWebKit/537.36 (KHTML, like Gecko) Chrome/123.0.0.0 Safari/537.36" version="24.4.10" etag="_7HXfxKa0n5vg-5RGyFY" type="github">
  <diagram name="Page-1" id="p602NZsWizmAM8iF5gGL">
    <mxGraphModel>
      <root>
        <mxCell id="0" />
        <mxCell id="1" parent="0" />
      </root>
    </mxGraphModel>
  </diagram>
</mxfile>
